# xmcd
#
# Track frame offsets:
#	182
#	10277
#	24640
#	37185
#	48645
#	59487
#	70960
#	82867
#	93130
#	105275
#	113755
#	129500
#	146755
#	162532
#
# Disc length: 2308 seconds
#
# Revision: 10
# Processed by: cddbd v1.5.1PL0 Copyright (c) Steve Scherf et al.
# Submitted via: audiograbber 1.83.01
#
DISCID=bc09020e
DTITLE=Various Artist - Country Ballads [CD2]
DYEAR=1993
DGENRE=Country
TTITLE0=Johnny Cash - Ballad of a teenage queen
TTITLE1=George Jones - A good year for the roses
TTITLE2=Gene Autry - Have I told you lately that I love you
TTITLE3=Patsy Cline - The heart you break may be your own
TTITLE4=Carl Belew - Am I that easy to forget
TTITLE5=Willie Nelson - Suffering in silence
TTITLE6=Dolly Parton - Letter to heaven
TTITLE7=Don Williams - Take my hand for a while
TTITLE8=Pat Boon - Don't want to fall away from you April
TTITLE9=Waylon Jennings - Abilene
TTITLE10=Anne Murray - There goes my everything
TTITLE11=Billie Jo Spears - For the good times
TTITLE12=Skeeter Davis - Desperado
TTITLE13=Kenny Rogers - She even woke me up to say goodbye
EXTD=ID3G: 2
EXTT0=
EXTT1=
EXTT2=
EXTT3=
EXTT4=
EXTT5=
EXTT6=
EXTT7=
EXTT8=
EXTT9=
EXTT10=
EXTT11=
EXTT12=
EXTT13=
PLAYORDER=
